<svg
  xmlns="http://www.w3.org/2000/svg"
  viewBox="0 0 24 24"
  width="24"
  height="24"
  fill="currentColor"
>
  <path d="M11.214 0.006c-.051.005-.215.022-.364.034C7.442.347 4.249 2.186 2.226 5.013 1.1 6.585.38 8.368.108 10.256.012 10.916 0 11.11 0 12.004c0 .894.012 1.089.108 1.748.652 4.507 3.86 8.294 8.21 9.697.78.251 1.601.423 2.534.526.364.04 1.936.04 2.3 0 1.612-.178 2.977-.577 4.324-1.264.206-.105.246-.133.218-.156-.019-.014-.899-1.194-1.955-2.62L13.818 17.34 11.413 13.78C10.09 11.824 9.002 10.224 8.992 10.224c-.01-.002-.019 1.58-.024 3.51-.007 3.381-.01 3.518-.052 3.597-.06.115-.107.162-.205.214a.537.537 0 0 1-.495.045H7.81l-.108-.068a.424.424 0 0 1-.158-.172l-.049-.106.005-4.704.007-4.706.073-.092a.504.504 0 0 1 .173-.143c.096-.047.134-.052.54-.052.479 0 .559.019.683.155.036.037 1.338 1.998 2.896 4.36 1.558 2.362 3.688 5.588 4.734 7.172l1.9 2.879.096-.063c.852-.554 1.753-1.342 2.466-2.163 1.518-1.743 2.496-3.869 2.825-6.135C23.988 13.093 24 12.898 24 12.004c0-.894-.012-1.089-.108-1.748C23.24 5.75 20.033 1.963 15.683.56c-.767-.249-1.583-.42-2.498-.523A20.663 20.663 0 0 0 11.214.006ZM16.127 7.265a.508.508 0 0 1 .237.277c.019.06.024 1.365.019 4.305l-.007 4.218-.743-1.14-.746-1.14V10.719c0-1.982.01-3.096.024-3.15a.454.454 0 0 1 .232-.296c.096-.049.131-.054.5-.054.347 0 .408.005.486.047Z" />
</svg>
